<svg id="Layer_1" height="512" viewBox="0 0 512 512" width="512" xmlns="http://www.w3.org/2000/svg" data-name="Layer 1"><rect height="59.938" rx="18.113" width="39.063" x="286.175" y="38.084"/><path d="m380.237 108.034a27.657 27.657 0 0 0 -27.626-27.626h-15.385a30.143 30.143 0 0 1 -30.1 29.613h-2.837a30.142 30.142 0 0 1 -30.1-29.613h-135.9a30.142 30.142 0 0 1 -30.1 29.613h-2.839a30.143 30.143 0 0 1 -30.1-29.613h-15.387a27.657 27.657 0 0 0 -27.626 27.626v28.261h348z"/><rect height="59.938" rx="18.113" width="39.063" x="87.236" y="38.084"/><path d="m380.237 274.059v-125.764h-348v226.776a27.657 27.657 0 0 0 27.626 27.629h222.372a106.022 106.022 0 0 1 98-128.638zm-317.937-6.726a6 6 0 0 1 -12 0v-63a6 6 0 0 1 12 0zm0-86a6 6 0 0 1 -12 0v-6.295a6 6 0 0 1 12 0z"/><path d="m385.763 285.916a94 94 0 1 0 94 94 94.106 94.106 0 0 0 -94-94zm60.67 62.834-72.639 70.918a6 6 0 0 1 -8.383 0l-40.318-39.368a6 6 0 1 1 8.383-8.586l36.124 35.275 68.447-66.825a6 6 0 0 1 8.383 8.586z"/></svg>