<?xml version="1.0" encoding="utf-8"?>
<!-- Generator: Adobe Illustrator 25.0.0, SVG Export Plug-In . SVG Version: 6.00 Build 0)  -->
<svg version="1.1" id="Layer_1" xmlns="http://www.w3.org/2000/svg" xmlns:xlink="http://www.w3.org/1999/xlink" x="0px" y="0px"
	 width="1000px" height="1000px" viewBox="0 0 1000 1000" style="enable-background:new 0 0 1000 1000;" xml:space="preserve">
<style type="text/css">
	.st0{fill:#1900DF;}
</style>
<g>
	<path class="st0" d="M847.7,10H152.3c-52.2,0-94.8,42.7-94.8,94.8v790.3c0,52.2,42.7,94.8,94.8,94.8h695.5
		c52.2,0,94.8-42.7,94.8-94.8V104.8C942.6,52.7,899.9,10,847.7,10z M673.9,199.7c79,0,142.3,63.2,142.3,142.3S753,484.3,673.9,484.3
		c-79,0-142.3-63.2-142.3-142.3S594.8,199.7,673.9,199.7z M215.5,215.5h173.9c17.4,0,31.6,14.2,31.6,31.6s-14.2,31.6-31.6,31.6
		H215.5c-17.4,0-31.6-14.2-31.6-31.6S198.1,215.5,215.5,215.5z M215.5,389.4h173.9c17.4,0,31.6,14.2,31.6,31.6s-14.2,31.6-31.6,31.6
		H215.5c-17.4,0-31.6-14.2-31.6-31.6S198.1,389.4,215.5,389.4z M784.5,816.1h-569c-17.4,0-31.6-14.2-31.6-31.6
		c0-17.4,14.2-31.6,31.6-31.6h569c17.4,0,31.6,14.2,31.6,31.6C816.1,801.9,801.9,816.1,784.5,816.1z M784.5,626.5h-569
		c-17.4,0-31.6-14.2-31.6-31.6c0-17.4,14.2-31.6,31.6-31.6h569c17.4,0,31.6,14.2,31.6,31.6C816.1,612.2,801.9,626.5,784.5,626.5z
		 M666,373.5c1.6,0,3.2,0,4.7,0s1.6,0,3.2,0h79c9.5,0,15.8-6.3,15.8-15.8s-6.3-15.8-15.8-15.8h-63.2v-55.3
		c0-12.6-11.1-23.7-23.7-23.7c-12.6,0-23.7,11.1-23.7,23.7v63.2C642.3,362.5,653.3,373.5,666,373.5z"/>
</g>
</svg>
