<svg id="e25df815-f4ad-4fd6-8d4a-09e7fce07e89" data-name="Layer 1" xmlns="http://www.w3.org/2000/svg" width="3.8194in" height="3.7221in" viewBox="0 0 275 267.9922"><defs><style>.e151ecf7-1778-4b76-bc62-f6869c4b1af4{fill:#fff;}.bce9ca65-6962-41d2-bfb3-c0bc9d5e6879{fill:none;}</style></defs><ellipse class="e151ecf7-1778-4b76-bc62-f6869c4b1af4" cx="137.5" cy="133.9961" rx="137.5" ry="133.9961"/><path d="M277.2,281.8711v2.227h-4.4541v-2.227c0-1.3887-.9956-2.2007-3.2749-2.2271-2.2266,0-3.2485.8384-3.2749,2.2271,0,2.2007,11.5542,2.2534,11.5278,8.96,0,3.5108-4.1655,6.6543-8.2265,6.6285-4.0869,0-8.2788-3.0918-8.2788-6.6548v-2.2271h4.4536v2.2271c0,1.31,1.2314,2.227,3.8252,2.2007,2.5937,0,3.7988-.8648,3.7724-2.1744,0-2.2793-11.5014-2.2793-11.5273-8.96,0-3.5366,3.93-6.6543,7.7285-6.6807C273.2959,275.19,277.2,278.3345,277.2,281.8711Z" transform="translate(-166 -251.0078)"/><path d="M292.7842,295.2329l.0263,2.2529h-4.4277l-.0264-2.2265-.0263-8.0435c0-2.2793-1.0742-3.4321-3.0127-3.4585-1.9126,0-3.0132,1.1792-3.0132,3.4585V297.46h-4.4536V275.3213h4.4536v4.78a6.5452,6.5452,0,0,1,3.0132-.7979c3.8511,0,7.4931,3.93,7.4668,7.9121Z" transform="translate(-166 -251.0078)"/><path d="M291.8638,288.395c0-4.6636,3.956-9.0649,8.2524-9.0913a7.1611,7.1611,0,0,1,3.7988,1.1572v-1.1572h4.4541V297.46H303.915v-1.1285a7.1158,7.1158,0,0,1-3.7988,1.1285C295.7935,297.46,291.8638,293.0059,291.8638,288.395Zm4.4536,0c0,2.9341,1.4936,4.6372,3.7988,4.6109,2.2915,0,3.7734-1.5938,3.7988-4.4585v-.1524c0-2.9609-1.4668-4.6113-3.7988-4.6377C297.7847,283.7573,296.3174,285.4341,296.3174,288.395Z" transform="translate(-166 -251.0078)"/><path d="M307.5273,282.1069l-.76-2.8032h4.6113l.4453,1.65,1.8858,7.0737,2.8037-7.2832.55-1.4409h3.04l.5488,1.4409,2.8047,7.2832,1.8858-7.0737.4453-1.65h4.61l-.76,2.8032-3.667,13.7022-.4463,1.6509h-3.2217l-.55-1.441-3.1709-8.2529-3.17,8.2529-.55,1.441h-3.2227l-.4453-1.6509Z" transform="translate(-166 -251.0078)"/><path d="M334.2969,280.1016a6.55,6.55,0,0,1,3.0136-.7979c3.8516,0,7.4932,3.93,7.4668,7.9121v8.0171l.0264,2.2529H340.376l-.0264-2.2265-.0264-8.0435c0-2.2793-1.0742-3.4321-3.0127-3.4585-1.9121,0-3.0136,1.1792-3.0136,3.4585V297.46h-4.4531V279.3037h4.4531Z" transform="translate(-166 -251.0078)"/><path d="M245.0073,306.6226h6.5235v4.4536h-6.5235v17.8159h-4.4541V311.0762h-6.5761v-4.4536h11.03Z" transform="translate(-166 -251.0078)"/><path d="M266.5913,326.665l.0264,2.253H262.19l-.0263-2.2266-.0264-8.0435c0-2.2792-1.0742-3.4321-3.0127-3.4584-1.9126,0-3.0132,1.1792-3.0132,3.4584v10.2442h-4.4536V306.7534h4.4536v4.78a6.5468,6.5468,0,0,1,3.0132-.7979c3.8511,0,7.4932,3.93,7.4668,7.9121Z" transform="translate(-166 -251.0078)"/><path d="M266.0049,322.0537h-.3335V317.6h.293c.9912-3.7607,4.3554-6.8423,7.9594-6.8643,4.3233,0,8.253,4.4537,8.253,9.0913v2.2266H270.5591a4.8383,4.8383,0,0,0,3.4961,2.4107h.0259a3.1613,3.1613,0,0,0,2.7246-.42l1.2314-.9692h3.93l-.3408.76c-.7857,2.5938-3.0127,4.5328-6.9688,5.03C270.9316,329.3726,267.1318,325.9473,266.0049,322.0537Zm4.4863-4.4536h7.2315c0-.7339-1.4668-2.3843-3.7989-2.4106A3.4568,3.4568,0,0,0,270.4912,317.6Z" transform="translate(-166 -251.0078)"/><path d="M305.2563,317.4453a6.6056,6.6056,0,0,1,2.3277,4.792c0,3.38-3.4317,6.6807-6.9424,6.6548H290.5547V326.665l.0264-17.79v-2.2271h2.2265l6.7857-.0258c3.3276,0,7.5717,3.1962,7.5454,6.7592A5.8874,5.8874,0,0,1,305.2563,317.4453Zm-10.2392-1.8974,4.5762-.0176c1.8867,0,3.1176-.8384,3.0918-2.1485,0-1.3623-1.2315-2.2793-3.0918-2.3056h-4.5845Zm.0088,4.4365.0088,4.48,5.6069-.0264c1.729,0,2.5151-.7075,2.4888-2.2007,0-1.5195-.76-2.227-2.4888-2.2529h-5.6157Z" transform="translate(-166 -251.0078)"/><path d="M306.6631,319.8271c0-4.6635,3.956-9.0649,8.2529-9.0913a7.1638,7.1638,0,0,1,3.7988,1.1573v-1.1573h4.4532v18.1563h-4.4532v-1.1284a7.12,7.12,0,0,1-3.7988,1.1284C310.5928,328.8921,306.6631,324.438,306.6631,319.8271Zm4.4541,0c0,2.9341,1.4932,4.6373,3.7988,4.6109,2.291,0,3.7735-1.5938,3.7988-4.4585v-.1524c0-2.9609-1.4668-4.6113-3.7988-4.6376C312.584,315.19,311.1172,316.8662,311.1172,319.8271Z" transform="translate(-166 -251.0078)"/><path d="M327.749,312.0825a10.24,10.24,0,0,1,5.1084-1.3467h2.2276V315.19h-2.2276c-3.4551,0-5.082,1.2436-5.1084,4.43v.1553l.0264,2.2534h-.0264v6.8643h-4.4541V310.7358h4.4541Z" transform="translate(-166 -251.0078)"/><path d="M339.666,327.7427v1.1494h-4.4531V305.0767h4.4531v6.8227a7.2728,7.2728,0,0,1,3.8-1.1636c4.3233,0,8.2783,4.48,8.253,9.0913,0,4.6373-3.9043,9.0909-8.253,9.065A7.1854,7.1854,0,0,1,339.666,327.7427Zm0-7.9156c0,2.9605,1.4942,4.6373,3.8,4.6109,2.3311,0,3.8252-1.6245,3.7988-4.6109,0-2.9609-1.4677-4.6113-3.7988-4.6376C341.1338,315.19,339.666,316.84,339.666,319.8271Z" transform="translate(-166 -251.0078)"/><path d="M351.1309,322.0537h-.333V317.6h.2929c.9912-3.7607,4.3555-6.8423,7.96-6.8643,4.3222,0,8.2519,4.4537,8.2519,9.0913v2.2266H355.6855a4.84,4.84,0,0,0,3.4961,2.4107h.0254a3.1634,3.1634,0,0,0,2.7256-.42l1.2315-.9692h3.93l-.3409.76c-.7861,2.5938-3.0127,4.5328-6.9687,5.03C356.0586,329.3726,352.2578,325.9473,351.1309,322.0537Zm4.4863-4.4536H362.85c0-.7339-1.4668-2.3843-3.7988-2.4106A3.458,3.458,0,0,0,355.6172,317.6Z" transform="translate(-166 -251.0078)"/><path d="M371.8838,312.0825a10.24,10.24,0,0,1,5.1084-1.3467H379.22V315.19h-2.2275c-3.4551,0-5.082,1.2436-5.1084,4.43v.1553l.0264,2.2534h-.0264v6.8643H367.43V310.7358h4.4541Z" transform="translate(-166 -251.0078)"/><rect x="110.8664" y="86.2185" width="4.3636" height="4.3636"/><rect x="128.321" y="86.2185" width="4.3636" height="4.3636"/><rect x="132.6846" y="86.2185" width="4.3636" height="4.3636"/><rect x="145.7755" y="86.2185" width="4.3636" height="4.3636"/><rect x="150.1391" y="86.2185" width="4.3636" height="4.3636"/><rect x="163.2301" y="86.2185" width="4.3636" height="4.3636"/><rect x="167.5937" y="86.2185" width="4.3636" height="4.3636"/><rect x="115.2301" y="90.5821" width="4.3636" height="4.3636"/><rect x="119.5937" y="90.5821" width="4.3636" height="4.3636"/><rect x="132.6846" y="90.5821" width="4.3636" height="4.3636"/><rect x="141.4119" y="90.5821" width="4.3636" height="4.3636"/><rect x="154.5028" y="90.5821" width="4.3636" height="4.3636"/><rect x="158.8664" y="90.5821" width="4.3636" height="4.3636"/><rect x="163.2301" y="90.5821" width="4.3636" height="4.3636"/><rect x="167.5937" y="90.5821" width="4.3636" height="4.3636"/><rect x="171.9573" y="90.5821" width="4.3636" height="4.3636"/><rect x="106.5028" y="94.9458" width="4.3636" height="4.3636"/><rect x="110.8664" y="94.9458" width="4.3636" height="4.3636"/><rect x="115.2301" y="94.9458" width="4.3636" height="4.3636"/><rect x="128.321" y="94.9458" width="4.3636" height="4.3636"/><rect x="132.6846" y="94.9458" width="4.3636" height="4.3636"/><rect x="137.0482" y="94.9458" width="4.3636" height="4.3636"/><rect x="141.4119" y="94.9458" width="4.3636" height="4.3636"/><rect x="150.1391" y="94.9458" width="4.3636" height="4.3636"/><rect x="154.5028" y="94.9458" width="4.3636" height="4.3636"/><rect x="167.5937" y="94.9458" width="4.3636" height="4.3636"/><rect x="115.2301" y="99.3094" width="4.3636" height="4.3636"/><rect x="119.5937" y="99.3094" width="4.3636" height="4.3636"/><rect x="123.9573" y="99.3094" width="4.3636" height="4.3636"/><rect x="132.6846" y="99.3094" width="4.3636" height="4.3636"/><rect x="141.4119" y="99.3094" width="4.3636" height="4.3636"/><rect x="158.8664" y="99.3094" width="4.3636" height="4.3636"/><rect x="167.5937" y="99.3094" width="4.3636" height="4.3636"/><rect x="119.5937" y="103.6731" width="4.3636" height="4.3636"/><rect x="137.0482" y="103.6731" width="4.3636" height="4.3636"/><rect x="141.4119" y="103.6731" width="4.3636" height="4.3636"/><rect x="150.1391" y="103.6731" width="4.3636" height="4.3636"/><rect x="163.2301" y="103.6731" width="4.3636" height="4.3636"/><rect x="102.1391" y="108.0367" width="4.3636" height="4.3636"/><rect x="106.5028" y="108.0367" width="4.3636" height="4.3636"/><rect x="110.8664" y="108.0367" width="4.3636" height="4.3636"/><rect x="123.9573" y="108.0367" width="4.3636" height="4.3636"/><rect x="128.321" y="108.0367" width="4.3636" height="4.3636"/><rect x="145.7755" y="108.0367" width="4.3636" height="4.3636"/><rect x="154.5028" y="108.0367" width="4.3636" height="4.3636"/><rect x="163.2301" y="108.0367" width="4.3636" height="4.3636"/><rect x="167.5937" y="108.0367" width="4.3636" height="4.3636"/><rect x="102.1391" y="112.4003" width="4.3636" height="4.3636"/><rect x="110.8664" y="112.4003" width="4.3636" height="4.3636"/><rect x="119.5937" y="112.4003" width="4.3636" height="4.3636"/><rect x="128.321" y="112.4003" width="4.3636" height="4.3636"/><rect x="137.0482" y="112.4003" width="4.3636" height="4.3636"/><rect x="145.7755" y="112.4003" width="4.3636" height="4.3636"/><rect x="154.5028" y="112.4003" width="4.3636" height="4.3636"/><rect x="163.2301" y="112.4003" width="4.3636" height="4.3636"/><rect x="171.9573" y="112.4003" width="4.3636" height="4.3636"/><rect x="119.5937" y="116.764" width="4.3636" height="4.3636"/><rect x="141.4119" y="116.764" width="4.3636" height="4.3636"/><rect x="145.7755" y="116.764" width="4.3636" height="4.3636"/><rect x="150.1391" y="116.764" width="4.3636" height="4.3636"/><rect x="154.5028" y="116.764" width="4.3636" height="4.3636"/><rect x="158.8664" y="116.764" width="4.3636" height="4.3636"/><rect x="171.9573" y="116.764" width="4.3636" height="4.3636"/><rect x="67.2301" y="121.1276" width="4.3636" height="4.3636"/><rect x="80.321" y="121.1276" width="4.3636" height="4.3636"/><rect x="89.0482" y="121.1276" width="4.3636" height="4.3636"/><rect x="93.4119" y="121.1276" width="4.3636" height="4.3636"/><rect x="102.1391" y="121.1276" width="4.3636" height="4.3636"/><rect x="106.5028" y="121.1276" width="4.3636" height="4.3636"/><rect x="110.8664" y="121.1276" width="4.3636" height="4.3636"/><rect x="115.2301" y="121.1276" width="4.3636" height="4.3636"/><rect x="123.9573" y="121.1276" width="4.3636" height="4.3636"/><rect x="128.321" y="121.1276" width="4.3636" height="4.3636"/><rect x="132.6846" y="121.1276" width="4.3636" height="4.3636"/><rect x="145.7755" y="121.1276" width="4.3636" height="4.3636"/><rect x="150.1391" y="121.1276" width="4.3636" height="4.3636"/><rect x="158.8664" y="121.1276" width="4.3636" height="4.3636"/><rect x="171.9573" y="121.1276" width="4.3636" height="4.3636"/><rect x="176.321" y="121.1276" width="4.3636" height="4.3636"/><rect x="185.0482" y="121.1276" width="4.3636" height="4.3636"/><rect x="67.2301" y="125.4912" width="4.3636" height="4.3636"/><rect x="80.321" y="125.4912" width="4.3636" height="4.3636"/><rect x="89.0482" y="125.4912" width="4.3636" height="4.3636"/><rect x="97.7755" y="125.4912" width="4.3636" height="4.3636"/><rect x="106.5028" y="125.4912" width="4.3636" height="4.3636"/><rect x="119.5937" y="125.4912" width="4.3636" height="4.3636"/><rect x="137.0482" y="125.4912" width="4.3636" height="4.3636"/><rect x="154.5028" y="125.4912" width="4.3636" height="4.3636"/><rect x="171.9573" y="125.4912" width="4.3636" height="4.3636"/><rect x="176.321" y="125.4912" width="4.3636" height="4.3636"/><rect x="180.6846" y="125.4912" width="4.3636" height="4.3636"/><rect x="185.0482" y="125.4912" width="4.3636" height="4.3636"/><rect x="206.8664" y="125.4912" width="4.3636" height="4.3636"/><rect x="71.5937" y="129.8549" width="4.3636" height="4.3636"/><rect x="80.321" y="129.8549" width="4.3636" height="4.3636"/><rect x="84.6846" y="129.8549" width="4.3636" height="4.3636"/><rect x="93.4119" y="129.8549" width="4.3636" height="4.3636"/><rect x="106.5028" y="129.8549" width="4.3636" height="4.3636"/><rect x="110.8664" y="129.8549" width="4.3636" height="4.3636"/><rect x="115.2301" y="129.8549" width="4.3636" height="4.3636"/><rect x="119.5937" y="129.8549" width="4.3636" height="4.3636"/><rect x="137.0482" y="129.8549" width="4.3636" height="4.3636"/><rect x="141.4119" y="129.8549" width="4.3636" height="4.3636"/><rect x="150.1391" y="129.8549" width="4.3636" height="4.3636"/><rect x="158.8664" y="129.8549" width="4.3636" height="4.3636"/><rect x="163.2301" y="129.8549" width="4.3636" height="4.3636"/><rect x="176.321" y="129.8549" width="4.3636" height="4.3636"/><rect x="180.6846" y="129.8549" width="4.3636" height="4.3636"/><rect x="185.0482" y="129.8549" width="4.3636" height="4.3636"/><rect x="189.4119" y="129.8549" width="4.3636" height="4.3636"/><rect x="198.1391" y="129.8549" width="4.3636" height="4.3636"/><rect x="206.8664" y="129.8549" width="4.3636" height="4.3636"/><rect x="75.9573" y="134.2185" width="4.3636" height="4.3636"/><rect x="80.321" y="134.2185" width="4.3636" height="4.3636"/><rect x="106.5028" y="134.2185" width="4.3636" height="4.3636"/><rect x="110.8664" y="134.2185" width="4.3636" height="4.3636"/><rect x="128.321" y="134.2185" width="4.3636" height="4.3636"/><rect x="137.0482" y="134.2185" width="4.3636" height="4.3636"/><rect x="141.4119" y="134.2185" width="4.3636" height="4.3636"/><rect x="154.5028" y="134.2185" width="4.3636" height="4.3636"/><rect x="167.5937" y="134.2185" width="4.3636" height="4.3636"/><rect x="176.321" y="134.2185" width="4.3636" height="4.3636"/><rect x="189.4119" y="134.2185" width="4.3636" height="4.3636"/><rect x="193.7755" y="134.2185" width="4.3636" height="4.3636"/><rect x="202.5028" y="134.2185" width="4.3636" height="4.3636"/><rect x="67.2301" y="138.5821" width="4.3636" height="4.3636"/><rect x="80.321" y="138.5821" width="4.3636" height="4.3636"/><rect x="84.6846" y="138.5821" width="4.3636" height="4.3636"/><rect x="89.0482" y="138.5821" width="4.3636" height="4.3636"/><rect x="93.4119" y="138.5821" width="4.3636" height="4.3636"/><rect x="97.7755" y="138.5821" width="4.3636" height="4.3636"/><rect x="115.2301" y="138.5821" width="4.3636" height="4.3636"/><rect x="119.5937" y="138.5821" width="4.3636" height="4.3636"/><rect x="132.6846" y="138.5821" width="4.3636" height="4.3636"/><rect x="171.9573" y="138.5821" width="4.3636" height="4.3636"/><rect x="176.321" y="138.5821" width="4.3636" height="4.3636"/><rect x="180.6846" y="138.5821" width="4.3636" height="4.3636"/><rect x="185.0482" y="138.5821" width="4.3636" height="4.3636"/><rect x="193.7755" y="138.5821" width="4.3636" height="4.3636"/><rect x="202.5028" y="138.5821" width="4.3636" height="4.3636"/><rect x="67.2301" y="142.9458" width="4.3636" height="4.3636"/><rect x="75.9573" y="142.9458" width="4.3636" height="4.3636"/><rect x="89.0482" y="142.9458" width="4.3636" height="4.3636"/><rect x="97.7755" y="142.9458" width="4.3636" height="4.3636"/><rect x="106.5028" y="142.9458" width="4.3636" height="4.3636"/><rect x="110.8664" y="142.9458" width="4.3636" height="4.3636"/><rect x="119.5937" y="142.9458" width="4.3636" height="4.3636"/><rect x="123.9573" y="142.9458" width="4.3636" height="4.3636"/><rect x="132.6846" y="142.9458" width="4.3636" height="4.3636"/><rect x="137.0482" y="142.9458" width="4.3636" height="4.3636"/><rect x="163.2301" y="142.9458" width="4.3636" height="4.3636"/><rect x="167.5937" y="142.9458" width="4.3636" height="4.3636"/><rect x="180.6846" y="142.9458" width="4.3636" height="4.3636"/><rect x="189.4119" y="142.9458" width="4.3636" height="4.3636"/><rect x="202.5028" y="142.9458" width="4.3636" height="4.3636"/><rect x="206.8664" y="142.9458" width="4.3636" height="4.3636"/><rect x="84.6846" y="147.3094" width="4.3636" height="4.3636"/><rect x="89.0482" y="147.3094" width="4.3636" height="4.3636"/><rect x="93.4119" y="147.3094" width="4.3636" height="4.3636"/><rect x="97.7755" y="147.3094" width="4.3636" height="4.3636"/><rect x="115.2301" y="147.3094" width="4.3636" height="4.3636"/><rect x="119.5937" y="147.3094" width="4.3636" height="4.3636"/><rect x="123.9573" y="147.3094" width="4.3636" height="4.3636"/><rect x="128.321" y="147.3094" width="4.3636" height="4.3636"/><rect x="154.5028" y="147.3094" width="4.3636" height="4.3636"/><rect x="158.8664" y="147.3094" width="4.3636" height="4.3636"/><rect x="167.5937" y="147.3094" width="4.3636" height="4.3636"/><rect x="176.321" y="147.3094" width="4.3636" height="4.3636"/><rect x="180.6846" y="147.3094" width="4.3636" height="4.3636"/><rect x="185.0482" y="147.3094" width="4.3636" height="4.3636"/><rect x="189.4119" y="147.3094" width="4.3636" height="4.3636"/><rect x="193.7755" y="147.3094" width="4.3636" height="4.3636"/><rect x="198.1391" y="147.3094" width="4.3636" height="4.3636"/><rect x="202.5028" y="147.3094" width="4.3636" height="4.3636"/><rect x="67.2301" y="151.6731" width="4.3636" height="4.3636"/><rect x="75.9573" y="151.6731" width="4.3636" height="4.3636"/><rect x="80.321" y="151.6731" width="4.3636" height="4.3636"/><rect x="97.7755" y="151.6731" width="4.3636" height="4.3636"/><rect x="102.1391" y="151.6731" width="4.3636" height="4.3636"/><rect x="106.5028" y="151.6731" width="4.3636" height="4.3636"/><rect x="123.9573" y="151.6731" width="4.3636" height="4.3636"/><rect x="132.6846" y="151.6731" width="4.3636" height="4.3636"/><rect x="141.4119" y="151.6731" width="4.3636" height="4.3636"/><rect x="145.7755" y="151.6731" width="4.3636" height="4.3636"/><rect x="150.1391" y="151.6731" width="4.3636" height="4.3636"/><rect x="158.8664" y="151.6731" width="4.3636" height="4.3636"/><rect x="163.2301" y="151.6731" width="4.3636" height="4.3636"/><rect x="171.9573" y="151.6731" width="4.3636" height="4.3636"/><rect x="180.6846" y="151.6731" width="4.3636" height="4.3636"/><rect x="185.0482" y="151.6731" width="4.3636" height="4.3636"/><rect x="202.5028" y="151.6731" width="4.3636" height="4.3636"/><rect x="75.9573" y="156.0367" width="4.3636" height="4.3636"/><rect x="80.321" y="156.0367" width="4.3636" height="4.3636"/><rect x="93.4119" y="156.0367" width="4.3636" height="4.3636"/><rect x="123.9573" y="156.0367" width="4.3636" height="4.3636"/><rect x="141.4119" y="156.0367" width="4.3636" height="4.3636"/><rect x="150.1391" y="156.0367" width="4.3636" height="4.3636"/><rect x="154.5028" y="156.0367" width="4.3636" height="4.3636"/><rect x="158.8664" y="156.0367" width="4.3636" height="4.3636"/><rect x="163.2301" y="156.0367" width="4.3636" height="4.3636"/><rect x="167.5937" y="156.0367" width="4.3636" height="4.3636"/><rect x="180.6846" y="156.0367" width="4.3636" height="4.3636"/><rect x="189.4119" y="156.0367" width="4.3636" height="4.3636"/><rect x="202.5028" y="156.0367" width="4.3636" height="4.3636"/><rect x="67.2301" y="160.4003" width="4.3636" height="4.3636"/><rect x="75.9573" y="160.4003" width="4.3636" height="4.3636"/><rect x="80.321" y="160.4003" width="4.3636" height="4.3636"/><rect x="84.6846" y="160.4003" width="4.3636" height="4.3636"/><rect x="89.0482" y="160.4003" width="4.3636" height="4.3636"/><rect x="97.7755" y="160.4003" width="4.3636" height="4.3636"/><rect x="102.1391" y="160.4003" width="4.3636" height="4.3636"/><rect x="106.5028" y="160.4003" width="4.3636" height="4.3636"/><rect x="115.2301" y="160.4003" width="4.3636" height="4.3636"/><rect x="145.7755" y="160.4003" width="4.3636" height="4.3636"/><rect x="158.8664" y="160.4003" width="4.3636" height="4.3636"/><rect x="167.5937" y="160.4003" width="4.3636" height="4.3636"/><rect x="171.9573" y="160.4003" width="4.3636" height="4.3636"/><rect x="176.321" y="160.4003" width="4.3636" height="4.3636"/><rect x="185.0482" y="160.4003" width="4.3636" height="4.3636"/><rect x="193.7755" y="160.4003" width="4.3636" height="4.3636"/><rect x="202.5028" y="160.4003" width="4.3636" height="4.3636"/><rect x="67.2301" y="164.764" width="4.3636" height="4.3636"/><rect x="71.5937" y="164.764" width="4.3636" height="4.3636"/><rect x="89.0482" y="164.764" width="4.3636" height="4.3636"/><rect x="93.4119" y="164.764" width="4.3636" height="4.3636"/><rect x="102.1391" y="164.764" width="4.3636" height="4.3636"/><rect x="106.5028" y="164.764" width="4.3636" height="4.3636"/><rect x="110.8664" y="164.764" width="4.3636" height="4.3636"/><rect x="115.2301" y="164.764" width="4.3636" height="4.3636"/><rect x="123.9573" y="164.764" width="4.3636" height="4.3636"/><rect x="145.7755" y="164.764" width="4.3636" height="4.3636"/><rect x="154.5028" y="164.764" width="4.3636" height="4.3636"/><rect x="163.2301" y="164.764" width="4.3636" height="4.3636"/><rect x="171.9573" y="164.764" width="4.3636" height="4.3636"/><rect x="180.6846" y="164.764" width="4.3636" height="4.3636"/><rect x="198.1391" y="164.764" width="4.3636" height="4.3636"/><rect x="202.5028" y="164.764" width="4.3636" height="4.3636"/><rect x="206.8664" y="164.764" width="4.3636" height="4.3636"/><rect x="67.2301" y="169.1276" width="4.3636" height="4.3636"/><rect x="75.9573" y="169.1276" width="4.3636" height="4.3636"/><rect x="80.321" y="169.1276" width="4.3636" height="4.3636"/><rect x="102.1391" y="169.1276" width="4.3636" height="4.3636"/><rect x="119.5937" y="169.1276" width="4.3636" height="4.3636"/><rect x="128.321" y="169.1276" width="4.3636" height="4.3636"/><rect x="132.6846" y="169.1276" width="4.3636" height="4.3636"/><rect x="141.4119" y="169.1276" width="4.3636" height="4.3636"/><rect x="145.7755" y="169.1276" width="4.3636" height="4.3636"/><rect x="150.1391" y="169.1276" width="4.3636" height="4.3636"/><rect x="154.5028" y="169.1276" width="4.3636" height="4.3636"/><rect x="158.8664" y="169.1276" width="4.3636" height="4.3636"/><rect x="180.6846" y="169.1276" width="4.3636" height="4.3636"/><rect x="185.0482" y="169.1276" width="4.3636" height="4.3636"/><rect x="202.5028" y="169.1276" width="4.3636" height="4.3636"/><rect x="206.8664" y="169.1276" width="4.3636" height="4.3636"/><rect x="75.9573" y="173.4912" width="4.3636" height="4.3636"/><rect x="80.321" y="173.4912" width="4.3636" height="4.3636"/><rect x="89.0482" y="173.4912" width="4.3636" height="4.3636"/><rect x="93.4119" y="173.4912" width="4.3636" height="4.3636"/><rect x="97.7755" y="173.4912" width="4.3636" height="4.3636"/><rect x="106.5028" y="173.4912" width="4.3636" height="4.3636"/><rect x="115.2301" y="173.4912" width="4.3636" height="4.3636"/><rect x="128.321" y="173.4912" width="4.3636" height="4.3636"/><rect x="137.0482" y="173.4912" width="4.3636" height="4.3636"/><rect x="141.4119" y="173.4912" width="4.3636" height="4.3636"/><rect x="145.7755" y="173.4912" width="4.3636" height="4.3636"/><rect x="150.1391" y="173.4912" width="4.3636" height="4.3636"/><rect x="163.2301" y="173.4912" width="4.3636" height="4.3636"/><rect x="167.5937" y="173.4912" width="4.3636" height="4.3636"/><rect x="171.9573" y="173.4912" width="4.3636" height="4.3636"/><rect x="176.321" y="173.4912" width="4.3636" height="4.3636"/><rect x="202.5028" y="173.4912" width="4.3636" height="4.3636"/><rect x="84.6846" y="177.8549" width="4.3636" height="4.3636"/><rect x="110.8664" y="177.8549" width="4.3636" height="4.3636"/><rect x="115.2301" y="177.8549" width="4.3636" height="4.3636"/><rect x="123.9573" y="177.8549" width="4.3636" height="4.3636"/><rect x="132.6846" y="177.8549" width="4.3636" height="4.3636"/><rect x="137.0482" y="177.8549" width="4.3636" height="4.3636"/><rect x="141.4119" y="177.8549" width="4.3636" height="4.3636"/><rect x="145.7755" y="177.8549" width="4.3636" height="4.3636"/><rect x="150.1391" y="177.8549" width="4.3636" height="4.3636"/><rect x="154.5028" y="177.8549" width="4.3636" height="4.3636"/><rect x="163.2301" y="177.8549" width="4.3636" height="4.3636"/><rect x="176.321" y="177.8549" width="4.3636" height="4.3636"/><rect x="180.6846" y="177.8549" width="4.3636" height="4.3636"/><rect x="193.7755" y="177.8549" width="4.3636" height="4.3636"/><rect x="198.1391" y="177.8549" width="4.3636" height="4.3636"/><rect x="202.5028" y="177.8549" width="4.3636" height="4.3636"/><rect x="206.8664" y="177.8549" width="4.3636" height="4.3636"/><rect x="67.2301" y="182.2185" width="4.3636" height="4.3636"/><rect x="71.5937" y="182.2185" width="4.3636" height="4.3636"/><rect x="84.6846" y="182.2185" width="4.3636" height="4.3636"/><rect x="93.4119" y="182.2185" width="4.3636" height="4.3636"/><rect x="97.7755" y="182.2185" width="4.3636" height="4.3636"/><rect x="106.5028" y="182.2185" width="4.3636" height="4.3636"/><rect x="115.2301" y="182.2185" width="4.3636" height="4.3636"/><rect x="123.9573" y="182.2185" width="4.3636" height="4.3636"/><rect x="128.321" y="182.2185" width="4.3636" height="4.3636"/><rect x="132.6846" y="182.2185" width="4.3636" height="4.3636"/><rect x="154.5028" y="182.2185" width="4.3636" height="4.3636"/><rect x="158.8664" y="182.2185" width="4.3636" height="4.3636"/><rect x="163.2301" y="182.2185" width="4.3636" height="4.3636"/><rect x="171.9573" y="182.2185" width="4.3636" height="4.3636"/><rect x="189.4119" y="182.2185" width="4.3636" height="4.3636"/><rect x="198.1391" y="182.2185" width="4.3636" height="4.3636"/><rect x="206.8664" y="182.2185" width="4.3636" height="4.3636"/><rect x="71.5937" y="186.5821" width="4.3636" height="4.3636"/><rect x="75.9573" y="186.5821" width="4.3636" height="4.3636"/><rect x="80.321" y="186.5821" width="4.3636" height="4.3636"/><rect x="84.6846" y="186.5821" width="4.3636" height="4.3636"/><rect x="89.0482" y="186.5821" width="4.3636" height="4.3636"/><rect x="97.7755" y="186.5821" width="4.3636" height="4.3636"/><rect x="110.8664" y="186.5821" width="4.3636" height="4.3636"/><rect x="115.2301" y="186.5821" width="4.3636" height="4.3636"/><rect x="119.5937" y="186.5821" width="4.3636" height="4.3636"/><rect x="123.9573" y="186.5821" width="4.3636" height="4.3636"/><rect x="137.0482" y="186.5821" width="4.3636" height="4.3636"/><rect x="158.8664" y="186.5821" width="4.3636" height="4.3636"/><rect x="163.2301" y="186.5821" width="4.3636" height="4.3636"/><rect x="167.5937" y="186.5821" width="4.3636" height="4.3636"/><rect x="176.321" y="186.5821" width="4.3636" height="4.3636"/><rect x="185.0482" y="186.5821" width="4.3636" height="4.3636"/><rect x="193.7755" y="186.5821" width="4.3636" height="4.3636"/><rect x="67.2301" y="190.9458" width="4.3636" height="4.3636"/><rect x="93.4119" y="190.9458" width="4.3636" height="4.3636"/><rect x="97.7755" y="190.9458" width="4.3636" height="4.3636"/><rect x="110.8664" y="190.9458" width="4.3636" height="4.3636"/><rect x="119.5937" y="190.9458" width="4.3636" height="4.3636"/><rect x="123.9573" y="190.9458" width="4.3636" height="4.3636"/><rect x="132.6846" y="190.9458" width="4.3636" height="4.3636"/><rect x="137.0482" y="190.9458" width="4.3636" height="4.3636"/><rect x="141.4119" y="190.9458" width="4.3636" height="4.3636"/><rect x="150.1391" y="190.9458" width="4.3636" height="4.3636"/><rect x="154.5028" y="190.9458" width="4.3636" height="4.3636"/><rect x="158.8664" y="190.9458" width="4.3636" height="4.3636"/><rect x="171.9573" y="190.9458" width="4.3636" height="4.3636"/><rect x="176.321" y="190.9458" width="4.3636" height="4.3636"/><rect x="180.6846" y="190.9458" width="4.3636" height="4.3636"/><rect x="185.0482" y="190.9458" width="4.3636" height="4.3636"/><rect x="189.4119" y="190.9458" width="4.3636" height="4.3636"/><rect x="102.1391" y="195.3094" width="4.3636" height="4.3636"/><rect x="106.5028" y="195.3094" width="4.3636" height="4.3636"/><rect x="110.8664" y="195.3094" width="4.3636" height="4.3636"/><rect x="123.9573" y="195.3094" width="4.3636" height="4.3636"/><rect x="128.321" y="195.3094" width="4.3636" height="4.3636"/><rect x="145.7755" y="195.3094" width="4.3636" height="4.3636"/><rect x="150.1391" y="195.3094" width="4.3636" height="4.3636"/><rect x="163.2301" y="195.3094" width="4.3636" height="4.3636"/><rect x="171.9573" y="195.3094" width="4.3636" height="4.3636"/><rect x="189.4119" y="195.3094" width="4.3636" height="4.3636"/><rect x="193.7755" y="195.3094" width="4.3636" height="4.3636"/><rect x="202.5028" y="195.3094" width="4.3636" height="4.3636"/><rect x="206.8664" y="195.3094" width="4.3636" height="4.3636"/><rect x="110.8664" y="199.6731" width="4.3636" height="4.3636"/><rect x="115.2301" y="199.6731" width="4.3636" height="4.3636"/><rect x="128.321" y="199.6731" width="4.3636" height="4.3636"/><rect x="154.5028" y="199.6731" width="4.3636" height="4.3636"/><rect x="158.8664" y="199.6731" width="4.3636" height="4.3636"/><rect x="171.9573" y="199.6731" width="4.3636" height="4.3636"/><rect x="180.6846" y="199.6731" width="4.3636" height="4.3636"/><rect x="189.4119" y="199.6731" width="4.3636" height="4.3636"/><rect x="193.7755" y="199.6731" width="4.3636" height="4.3636"/><rect x="198.1391" y="199.6731" width="4.3636" height="4.3636"/><rect x="202.5028" y="199.6731" width="4.3636" height="4.3636"/><rect x="102.1391" y="204.0367" width="4.3636" height="4.3636"/><rect x="110.8664" y="204.0367" width="4.3636" height="4.3636"/><rect x="119.5937" y="204.0367" width="4.3636" height="4.3636"/><rect x="132.6846" y="204.0367" width="4.3636" height="4.3636"/><rect x="137.0482" y="204.0367" width="4.3636" height="4.3636"/><rect x="171.9573" y="204.0367" width="4.3636" height="4.3636"/><rect x="189.4119" y="204.0367" width="4.3636" height="4.3636"/><rect x="110.8664" y="208.4003" width="4.3636" height="4.3636"/><rect x="115.2301" y="208.4003" width="4.3636" height="4.3636"/><rect x="119.5937" y="208.4003" width="4.3636" height="4.3636"/><rect x="128.321" y="208.4003" width="4.3636" height="4.3636"/><rect x="137.0482" y="208.4003" width="4.3636" height="4.3636"/><rect x="150.1391" y="208.4003" width="4.3636" height="4.3636"/><rect x="163.2301" y="208.4003" width="4.3636" height="4.3636"/><rect x="171.9573" y="208.4003" width="4.3636" height="4.3636"/><rect x="176.321" y="208.4003" width="4.3636" height="4.3636"/><rect x="180.6846" y="208.4003" width="4.3636" height="4.3636"/><rect x="185.0482" y="208.4003" width="4.3636" height="4.3636"/><rect x="189.4119" y="208.4003" width="4.3636" height="4.3636"/><rect x="193.7755" y="208.4003" width="4.3636" height="4.3636"/><rect x="202.5028" y="208.4003" width="4.3636" height="4.3636"/><rect x="206.8664" y="208.4003" width="4.3636" height="4.3636"/><rect x="102.1391" y="212.764" width="4.3636" height="4.3636"/><rect x="115.2301" y="212.764" width="4.3636" height="4.3636"/><rect x="119.5937" y="212.764" width="4.3636" height="4.3636"/><rect x="132.6846" y="212.764" width="4.3636" height="4.3636"/><rect x="150.1391" y="212.764" width="4.3636" height="4.3636"/><rect x="154.5028" y="212.764" width="4.3636" height="4.3636"/><rect x="158.8664" y="212.764" width="4.3636" height="4.3636"/><rect x="167.5937" y="212.764" width="4.3636" height="4.3636"/><rect x="171.9573" y="212.764" width="4.3636" height="4.3636"/><rect x="180.6846" y="212.764" width="4.3636" height="4.3636"/><rect x="189.4119" y="212.764" width="4.3636" height="4.3636"/><rect x="193.7755" y="212.764" width="4.3636" height="4.3636"/><rect x="202.5028" y="212.764" width="4.3636" height="4.3636"/><rect x="106.5028" y="217.1276" width="4.3636" height="4.3636"/><rect x="115.2301" y="217.1276" width="4.3636" height="4.3636"/><rect x="123.9573" y="217.1276" width="4.3636" height="4.3636"/><rect x="141.4119" y="217.1276" width="4.3636" height="4.3636"/><rect x="145.7755" y="217.1276" width="4.3636" height="4.3636"/><rect x="167.5937" y="217.1276" width="4.3636" height="4.3636"/><rect x="189.4119" y="217.1276" width="4.3636" height="4.3636"/><rect x="193.7755" y="217.1276" width="4.3636" height="4.3636"/><rect x="198.1391" y="217.1276" width="4.3636" height="4.3636"/><rect x="206.8664" y="217.1276" width="4.3636" height="4.3636"/><rect x="106.5028" y="221.4912" width="4.3636" height="4.3636"/><rect x="110.8664" y="221.4912" width="4.3636" height="4.3636"/><rect x="115.2301" y="221.4912" width="4.3636" height="4.3636"/><rect x="123.9573" y="221.4912" width="4.3636" height="4.3636"/><rect x="132.6846" y="221.4912" width="4.3636" height="4.3636"/><rect x="137.0482" y="221.4912" width="4.3636" height="4.3636"/><rect x="141.4119" y="221.4912" width="4.3636" height="4.3636"/><rect x="158.8664" y="221.4912" width="4.3636" height="4.3636"/><rect x="163.2301" y="221.4912" width="4.3636" height="4.3636"/><rect x="171.9573" y="221.4912" width="4.3636" height="4.3636"/><rect x="176.321" y="221.4912" width="4.3636" height="4.3636"/><rect x="102.1391" y="225.8549" width="4.3636" height="4.3636"/><rect x="123.9573" y="225.8549" width="4.3636" height="4.3636"/><rect x="128.321" y="225.8549" width="4.3636" height="4.3636"/><rect x="137.0482" y="225.8549" width="4.3636" height="4.3636"/><rect x="154.5028" y="225.8549" width="4.3636" height="4.3636"/><rect x="158.8664" y="225.8549" width="4.3636" height="4.3636"/><rect x="171.9573" y="225.8549" width="4.3636" height="4.3636"/><rect x="176.321" y="225.8549" width="4.3636" height="4.3636"/><rect x="189.4119" y="225.8549" width="4.3636" height="4.3636"/><rect x="193.7755" y="225.8549" width="4.3636" height="4.3636"/><rect x="202.5028" y="225.8549" width="4.3636" height="4.3636"/><rect class="bce9ca65-6962-41d2-bfb3-c0bc9d5e6879" x="71.8119" y="90.8003" width="21.3818" height="21.3818"/><path d="M259.1937,337.2263H233.23v30.5455h30.5454V337.2263Zm0,25.9637H237.8119V341.8082h21.3818Z" transform="translate(-166 -251.0078)"/><rect class="bce9ca65-6962-41d2-bfb3-c0bc9d5e6879" x="185.2664" y="90.8003" width="21.3818" height="21.3818"/><path d="M372.6482,337.2263H346.6846v30.5455H377.23V337.2263Zm0,25.9637H351.2664V341.8082h21.3818Z" transform="translate(-166 -251.0078)"/><rect class="bce9ca65-6962-41d2-bfb3-c0bc9d5e6879" x="71.8119" y="204.2549" width="21.3818" height="21.3818"/><path d="M259.1937,450.6809H233.23v30.5454h30.5454V450.6809Zm0,25.9636H237.8119V455.2627h21.3818Z" transform="translate(-166 -251.0078)"/><rect x="75.9573" y="94.9458" width="13.0909" height="13.0909"/><rect x="189.4119" y="94.9458" width="13.0909" height="13.0909"/><rect x="75.9573" y="208.4003" width="13.0909" height="13.0909"/></svg>